<?xml version="1.0" encoding="UTF-8" standalone="no" ?>
<!DOCTYPE svg PUBLIC "-//W3C//DTD SVG 1.1//EN" "http://www.w3.org/Graphics/SVG/1.1/DTD/svg11.dtd">
<svg xmlns="http://www.w3.org/2000/svg" xmlns:xlink="http://www.w3.org/1999/xlink" version="1.1" width="1080" height="1080" viewBox="0 0 1080 1080" xml:space="preserve">
<desc>Created with Fabric.js 5.2.4</desc>
<defs>
</defs>
<g transform="matrix(1 0 0 1 540 540)" id="17b2be26-777f-498e-bc3a-9cb3796d655c"  >
<rect style="stroke: none; stroke-width: 1; stroke-dasharray: none; stroke-linecap: butt; stroke-dashoffset: 0; stroke-linejoin: miter; stroke-miterlimit: 4; fill: rgb(255,255,255); fill-rule: nonzero; opacity: 1; visibility: hidden;" vector-effect="non-scaling-stroke"  x="-540" y="-540" rx="0" ry="0" width="1080" height="1080" />
</g>
<g transform="matrix(1 0 0 1 540 540)" id="34e95a2f-8a1d-4ff3-8e9f-b819e0ad769a"  >
</g>
<g transform="matrix(2.87 0 0 2.87 568 575.47)" style=""  >
		<text xml:space="preserve" font-family="Raleway" font-size="138" font-style="normal" font-weight="900" style="stroke: none; stroke-width: 2; stroke-dasharray: none; stroke-linecap: butt; stroke-dashoffset: 0; stroke-linejoin: miter; stroke-miterlimit: 4; fill: rgb(156,104,246); fill-rule: nonzero; opacity: 1; white-space: pre;" ><tspan x="-170.58" y="43.35" >A MS</tspan></text>
</g>
<g transform="matrix(0.79 0 0 0.79 461.34 540.03)"  >
<rect style="stroke: none; stroke-width: 1; stroke-dasharray: none; stroke-linecap: butt; stroke-dashoffset: 0; stroke-linejoin: miter; stroke-miterlimit: 4; fill: rgb(255,255,255); fill-rule: nonzero; opacity: 1; visibility: hidden;" vector-effect="non-scaling-stroke"  x="-540" y="-540" rx="0" ry="0" width="1080" height="1080" />
</g>
<g transform="matrix(3.02 1.42 -1.51 3.21 378.97 571.35)"  >
<path style="stroke: none; stroke-width: 2; stroke-dasharray: none; stroke-linecap: butt; stroke-dashoffset: 0; stroke-linejoin: miter; stroke-miterlimit: 4; fill: rgb(156,104,246); fill-rule: nonzero; opacity: 1;" vector-effect="non-scaling-stroke"  transform=" translate(-50.38, -50.17)" d="M 84.256 77.333 C 77.872 68.55499999999999 71.606 59.16 63.939 46.873 C 63.501 46.169999999999995 62.577 45.955999999999996 61.873 46.394 C 61.169999999999995 46.832 60.955999999999996 47.757 61.394 48.46 C 68.803 60.335 74.916 69.527 81.089 78.074 L 75.131 84.219 L 72.897 80.07799999999999 C 67.725 70.488 62.263 61 56.572 51.644 C 58.065000000000005 52.04 59.455000000000005 52.291 59.903000000000006 52.367 C 59.98800000000001 52.382 60.07300000000001 52.388 60.157000000000004 52.388 C 60.874 52.388 61.509 51.870999999999995 61.634 51.141 C 61.773 50.324999999999996 61.224000000000004 49.549 60.408 49.41 C 59.347 49.227999999999994 57.92 48.912 56.696 48.556 C 59.345 46.599 63.477 43.32 64.688 41.074999999999996 C 65.614 39.35999999999999 65.985 37.459999999999994 65.735 35.724 C 65.465 33.849999999999994 64.467 32.321 62.998 31.528 C 62.266 31.133 61.46 30.933 60.602 30.933 C 58.096 30.933 55.54 32.669 54.090999999999994 35.355 C 53.041 37.3 52.547 41.506 52.31499999999999 44.735 C 45.844 34.396 39.09 24.239 32.07 14.343 L 29.251 10.369 L 39.113 9.609 C 43.177 17.532 46.958 24.238 51.702 32.42 C 51.98 32.899 52.483999999999995 33.167 53.001 33.167 C 53.256 33.167 53.515 33.102000000000004 53.751999999999995 32.965 C 54.468999999999994 32.54900000000001 54.712999999999994 31.631000000000004 54.297 30.914 C 49.471999999999994 22.595 45.650999999999996 15.812000000000001 41.513999999999996 7.718 L 41.33 7.354 C 41.055 6.816 40.48 6.48 39.879 6.542 L 27.385 7.505 C 27.335 7.5089999999999995 27.288 7.523 27.239 7.531 L 26.617 6.654 C 26.341 6.265 25.897000000000002 6.031 25.421 6.022 C 24.95 6.006 24.493 6.231 24.203 6.61 L 16.526 16.635 C 16.124 17.16 16.113 17.888 16.5 18.425 C 22.459 26.686 27.878 35.004999999999995 33.119 43.05 C 33.571 43.744 34.5 43.942 35.195 43.488 C 35.889 43.036 36.085 42.106 35.633 41.413 C 30.564000000000004 33.631 25.329 25.593999999999994 19.585000000000004 17.574999999999996 L 25.348000000000006 10.048999999999996 L 29.624000000000006 16.077999999999996 C 36.38300000000001 25.606999999999996 42.891000000000005 35.381 49.14 45.324 C 46.466 44.286 43.388 43.278999999999996 41.491 43.278999999999996 L 41.303 43.282 C 39.355999999999995 43.346999999999994 37.527 43.983999999999995 36.155 45.07599999999999 C 34.673 46.25399999999999 33.856 47.88699999999999 33.912 49.55499999999999 C 34.021 52.78799999999999 37.299 55.321999999999996 41.373999999999995 55.321999999999996 C 41.48499999999999 55.321999999999996 41.596999999999994 55.31999999999999 41.708 55.315999999999995 C 43.794 55.245999999999995 47.369 53.733 50.207 52.361999999999995 C 49.647 53.635 49.213 55.16499999999999 49.307 56.77199999999999 C 49.354 57.56899999999999 50.015 58.18399999999999 50.803000000000004 58.18399999999999 C 50.83200000000001 58.18399999999999 50.862 58.18299999999999 50.892 58.18099999999999 C 51.719 58.13299999999999 52.35 57.42299999999999 52.302 56.59599999999999 C 52.211 55.04599999999999 52.902 53.496999999999986 53.535 52.42399999999999 C 59.370999999999995 61.986999999999995 64.966 71.69 70.258 81.502 L 74.473 89.316 L 65.168 91.128 L 64.054 89.04 C 58.326 78.302 52.651 68.426 45.653000000000006 57.017 C 45.220000000000006 56.311 44.297000000000004 56.089000000000006 43.59 56.523 C 42.884 56.956 42.662000000000006 57.879000000000005 43.095000000000006 58.585 C 50.06 69.94 55.708000000000006 79.769 61.40700000000001 90.452 L 63.04300000000001 93.518 C 63.307000000000016 94.013 63.820000000000014 94.312 64.36600000000001 94.312 C 64.46100000000001 94.312 64.55700000000002 94.303 64.65400000000001 94.285 L 77.049 91.86999999999999 C 77.51700000000001 91.77799999999999 77.914 91.46999999999998 78.11800000000001 91.03899999999999 C 78.322 90.60699999999999 78.30900000000001 90.10499999999999 78.08200000000001 89.68499999999999 L 76.62700000000001 86.987 L 84.12200000000001 79.256 C 84.627 78.735 84.685 77.923 84.256 77.333 z M 56.731 36.78 C 57.649 35.078 59.205 33.933 60.602000000000004 33.933 C 60.957 33.933 61.284000000000006 34.012 61.573 34.168 C 62.428 34.629 62.688 35.608 62.766 36.150999999999996 C 62.922999999999995 37.238 62.661 38.513 62.048 39.648999999999994 C 61.259 41.111 58.066 43.782999999999994 55.245000000000005 45.894999999999996 C 55.461 42.38 55.941 38.244 56.731 36.78 z M 41.606 52.319 L 41.373000000000005 52.323 C 38.965 52.323 36.962 51.037 36.909000000000006 49.455 C 36.876000000000005 48.483 37.59100000000001 47.766999999999996 38.02100000000001 47.425 C 38.88000000000001 46.741 40.11300000000001 46.324999999999996 41.49000000000001 46.279999999999994 C 43.33600000000001 46.279999999999994 47.28600000000001 47.76299999999999 50.22500000000001 49.00699999999999 C 47.079 50.593 43.266 52.264 41.606 52.319 z" stroke-linecap="round" />
</g>
<g transform="matrix(1.42 -1.47 1.47 1.42 364.91 348.57)"  >
<path style="stroke: none; stroke-width: 1; stroke-dasharray: none; stroke-linecap: butt; stroke-dashoffset: 0; stroke-linejoin: miter; stroke-miterlimit: 4; fill: rgb(156,104,246); fill-rule: nonzero; opacity: 1;" vector-effect="non-scaling-stroke"  transform=" translate(-42.9, -51.76)" d="M 41.631 57.403 C 41.606 57.403999999999996 41.582 57.403999999999996 41.556 57.403999999999996 C 41.208999999999996 57.403999999999996 40.873 57.272999999999996 40.619 57.035 L 17.898 35.675 L 13.434999999999999 48.595 C 13.518999999999998 48.829 14.302999999999999 50.376 20.907999999999998 53.765 C 25.868 56.31 32.527 59.069 39.658 61.533 C 50.766000000000005 65.37 61.173 67.848 66.17 67.849 L 66.17 67.849 C 67.68 67.849 68.164 67.611 68.274 67.542 L 72.359 55.721000000000004 L 41.631 57.403 z" stroke-linecap="round" />
</g>
<g transform="matrix(1.42 -1.47 1.47 1.42 347.94 315.34)"  >
<path style="stroke: none; stroke-width: 1; stroke-dasharray: none; stroke-linecap: butt; stroke-dashoffset: 0; stroke-linejoin: miter; stroke-miterlimit: 4; fill: rgb(156,104,246); fill-rule: nonzero; opacity: 1;" vector-effect="non-scaling-stroke"  transform=" translate(-48.81, -35.99)" d="M 77.038 49.548 C 74.601 42.678000000000004 55.699999999999996 38.414 48.623 37.351 C 47.875 37.239 47.361 36.542 47.474 35.795 C 47.586 35.048 48.278 34.532000000000004 49.031 34.646 C 49.302 34.687 55.775 35.672000000000004 62.76 37.807 C 72.447 40.767 78.11699999999999 44.410000000000004 79.615 48.635000000000005 C 80.15599999999999 50.157000000000004 80.506 51.43600000000001 80.729 52.526 L 94.186 51.790000000000006 L 54.899 17.336 L 3.428 18.318 L 42.067 54.641000000000005 L 77.971 52.676 C 77.769 51.801 77.474 50.773 77.038 49.548 z" stroke-linecap="round" />
</g>
<g transform="matrix(1.42 -1.47 1.47 1.42 454.03 320.57)"  >
<path style="stroke: none; stroke-width: 1; stroke-dasharray: none; stroke-linecap: butt; stroke-dashoffset: 0; stroke-linejoin: miter; stroke-miterlimit: 4; fill: rgb(156,104,246); fill-rule: nonzero; opacity: 1;" vector-effect="non-scaling-stroke"  transform=" translate(-84.3, -72.52)" d="M 96.455 64.848 C 95.649 62.068 91.119 61.926 90.22 61.926 L 90.072 61.935 C 87.893 62.173 86.117 61.706 84.636 60.508 C 81.348 57.846000000000004 80.75999999999999 52.577000000000005 80.75399999999999 52.524 L 77.97899999999998 52.676 C 78.00299999999999 52.941 78.72399999999999 59.230000000000004 82.90099999999998 62.624 C 84.93299999999998 64.273 87.41899999999998 64.962 90.28899999999999 64.662 C 92.03099999999999 64.68100000000001 93.71 65.2 93.829 65.61 C 93.83099999999999 65.623 94.02 66.91 89.25 70.272 C 88.287 69.94500000000001 87.076 70.20100000000001 86.149 71.036 C 85.514 71.608 85.132 72.34100000000001 85.028 73.06400000000001 C 83.34100000000001 73.96600000000001 75.78500000000001 78.62800000000001 72.057 91.331 C 71.95100000000001 91.69200000000001 72.159 92.074 72.521 92.18 C 72.584 92.19900000000001 72.65 92.20800000000001 72.713 92.20800000000001 C 73.008 92.20800000000001 73.27999999999999 92.01400000000001 73.368 91.71700000000001 C 76.40299999999999 81.37600000000002 82.17399999999999 76.55900000000001 84.695 74.87500000000001 C 82.068 77.18900000000002 73.65299999999999 85.37100000000001 77.89599999999999 91.83800000000002 C 78.02899999999998 92.03800000000003 78.24599999999998 92.14700000000002 78.46899999999998 92.14700000000002 C 78.59699999999998 92.14700000000002 78.72899999999998 92.11100000000002 78.84399999999998 92.03500000000003 C 79.16099999999997 91.82800000000003 79.24699999999999 91.40500000000003 79.03999999999998 91.08800000000002 C 75.45499999999998 85.62700000000002 83.13499999999998 78.10700000000003 85.57299999999998 75.93000000000002 C 83.41799999999998 78.28400000000002 79.30199999999998 83.40700000000002 79.71399999999998 87.79700000000003 C 79.89099999999999 89.69900000000003 80.88599999999998 91.24800000000002 82.66199999999998 92.39800000000002 C 82.77399999999997 92.47300000000003 82.90499999999997 92.50700000000002 83.03299999999997 92.50700000000002 C 83.25599999999997 92.50700000000002 83.47599999999997 92.39700000000002 83.60599999999997 92.19500000000002 C 83.81199999999997 91.87900000000002 83.72099999999996 91.45500000000003 83.40299999999996 91.24900000000002 C 81.97699999999996 90.32600000000002 81.21499999999996 89.15600000000002 81.07499999999996 87.67100000000002 C 80.63799999999996 83.02200000000002 86.42899999999996 76.97000000000003 87.57699999999996 75.81700000000002 C 88.28799999999995 75.77100000000002 89.02999999999996 75.47600000000003 89.64499999999995 74.92100000000002 C 90.38399999999996 74.25500000000002 90.76899999999995 73.37200000000001 90.78599999999996 72.53800000000003 C 95.301 69.37 97.065 66.953 96.455 64.848 z" stroke-linecap="round" />
</g>
<g transform="matrix(1.32 0 0 1.32 544.6 778.03)" style="" id="fe8e995a-1572-461c-bb12-111351e8069b"  >
		<text xml:space="preserve" font-family="Lato" font-size="40" font-style="normal" font-weight="400" style="stroke: none; stroke-width: 1; stroke-dasharray: none; stroke-linecap: butt; stroke-dashoffset: 0; stroke-linejoin: miter; stroke-miterlimit: 4; fill: rgb(156,104,246); fill-rule: nonzero; opacity: 1; white-space: pre;" ><tspan x="-344.76" y="12.57" >ABES Information Management System</tspan></text>
</g>
</svg>