<?xml version="1.0" encoding="UTF-8" standalone="no" ?>
<!DOCTYPE svg PUBLIC "-//W3C//DTD SVG 1.1//EN" "http://www.w3.org/Graphics/SVG/1.1/DTD/svg11.dtd">
<svg xmlns="http://www.w3.org/2000/svg" xmlns:xlink="http://www.w3.org/1999/xlink" version="1.1" width="1080" height="1080" viewBox="0 0 1080 1080" xml:space="preserve">
<desc>Created with Fabric.js 5.2.4</desc>
<defs>
</defs>
<g transform="matrix(1 0 0 1 540 540)" id="5b8decad-1674-4e1b-bf56-39cf5f81c2ac"  >
<rect style="stroke: none; stroke-width: 1; stroke-dasharray: none; stroke-linecap: butt; stroke-dashoffset: 0; stroke-linejoin: miter; stroke-miterlimit: 4; fill: rgb(255,255,255); fill-rule: nonzero; opacity: 1; visibility: hidden;" vector-effect="non-scaling-stroke"  x="-540" y="-540" rx="0" ry="0" width="1080" height="1080" />
</g>
<g transform="matrix(1 0 0 1 540 540)" id="2bf5329b-199f-4f70-8a6f-4010412bbe60"  >
</g>
<g transform="matrix(2.39 1.12 -1.19 2.53 363.81 568.76)"  >
<path style="stroke: none; stroke-width: 2; stroke-dasharray: none; stroke-linecap: butt; stroke-dashoffset: 0; stroke-linejoin: miter; stroke-miterlimit: 4; fill: rgb(176,136,244); fill-rule: nonzero; opacity: 1;" vector-effect="non-scaling-stroke"  transform=" translate(-50.38, -50.17)" d="M 84.256 77.333 C 77.872 68.55499999999999 71.606 59.16 63.939 46.873 C 63.501 46.169999999999995 62.577 45.955999999999996 61.873 46.394 C 61.169999999999995 46.832 60.955999999999996 47.757 61.394 48.46 C 68.803 60.335 74.916 69.527 81.089 78.074 L 75.131 84.219 L 72.897 80.07799999999999 C 67.725 70.488 62.263 61 56.572 51.644 C 58.065000000000005 52.04 59.455000000000005 52.291 59.903000000000006 52.367 C 59.98800000000001 52.382 60.07300000000001 52.388 60.157000000000004 52.388 C 60.874 52.388 61.509 51.870999999999995 61.634 51.141 C 61.773 50.324999999999996 61.224000000000004 49.549 60.408 49.41 C 59.347 49.227999999999994 57.92 48.912 56.696 48.556 C 59.345 46.599 63.477 43.32 64.688 41.074999999999996 C 65.614 39.35999999999999 65.985 37.459999999999994 65.735 35.724 C 65.465 33.849999999999994 64.467 32.321 62.998 31.528 C 62.266 31.133 61.46 30.933 60.602 30.933 C 58.096 30.933 55.54 32.669 54.090999999999994 35.355 C 53.041 37.3 52.547 41.506 52.31499999999999 44.735 C 45.844 34.396 39.09 24.239 32.07 14.343 L 29.251 10.369 L 39.113 9.609 C 43.177 17.532 46.958 24.238 51.702 32.42 C 51.98 32.899 52.483999999999995 33.167 53.001 33.167 C 53.256 33.167 53.515 33.102000000000004 53.751999999999995 32.965 C 54.468999999999994 32.54900000000001 54.712999999999994 31.631000000000004 54.297 30.914 C 49.471999999999994 22.595 45.650999999999996 15.812000000000001 41.513999999999996 7.718 L 41.33 7.354 C 41.055 6.816 40.48 6.48 39.879 6.542 L 27.385 7.505 C 27.335 7.5089999999999995 27.288 7.523 27.239 7.531 L 26.617 6.654 C 26.341 6.265 25.897000000000002 6.031 25.421 6.022 C 24.95 6.006 24.493 6.231 24.203 6.61 L 16.526 16.635 C 16.124 17.16 16.113 17.888 16.5 18.425 C 22.459 26.686 27.878 35.004999999999995 33.119 43.05 C 33.571 43.744 34.5 43.942 35.195 43.488 C 35.889 43.036 36.085 42.106 35.633 41.413 C 30.564000000000004 33.631 25.329 25.593999999999994 19.585000000000004 17.574999999999996 L 25.348000000000006 10.048999999999996 L 29.624000000000006 16.077999999999996 C 36.38300000000001 25.606999999999996 42.891000000000005 35.381 49.14 45.324 C 46.466 44.286 43.388 43.278999999999996 41.491 43.278999999999996 L 41.303 43.282 C 39.355999999999995 43.346999999999994 37.527 43.983999999999995 36.155 45.07599999999999 C 34.673 46.25399999999999 33.856 47.88699999999999 33.912 49.55499999999999 C 34.021 52.78799999999999 37.299 55.321999999999996 41.373999999999995 55.321999999999996 C 41.48499999999999 55.321999999999996 41.596999999999994 55.31999999999999 41.708 55.315999999999995 C 43.794 55.245999999999995 47.369 53.733 50.207 52.361999999999995 C 49.647 53.635 49.213 55.16499999999999 49.307 56.77199999999999 C 49.354 57.56899999999999 50.015 58.18399999999999 50.803000000000004 58.18399999999999 C 50.83200000000001 58.18399999999999 50.862 58.18299999999999 50.892 58.18099999999999 C 51.719 58.13299999999999 52.35 57.42299999999999 52.302 56.59599999999999 C 52.211 55.04599999999999 52.902 53.496999999999986 53.535 52.42399999999999 C 59.370999999999995 61.986999999999995 64.966 71.69 70.258 81.502 L 74.473 89.316 L 65.168 91.128 L 64.054 89.04 C 58.326 78.302 52.651 68.426 45.653000000000006 57.017 C 45.220000000000006 56.311 44.297000000000004 56.089000000000006 43.59 56.523 C 42.884 56.956 42.662000000000006 57.879000000000005 43.095000000000006 58.585 C 50.06 69.94 55.708000000000006 79.769 61.40700000000001 90.452 L 63.04300000000001 93.518 C 63.307000000000016 94.013 63.820000000000014 94.312 64.36600000000001 94.312 C 64.46100000000001 94.312 64.55700000000002 94.303 64.65400000000001 94.285 L 77.049 91.86999999999999 C 77.51700000000001 91.77799999999999 77.914 91.46999999999998 78.11800000000001 91.03899999999999 C 78.322 90.60699999999999 78.30900000000001 90.10499999999999 78.08200000000001 89.68499999999999 L 76.62700000000001 86.987 L 84.12200000000001 79.256 C 84.627 78.735 84.685 77.923 84.256 77.333 z M 56.731 36.78 C 57.649 35.078 59.205 33.933 60.602000000000004 33.933 C 60.957 33.933 61.284000000000006 34.012 61.573 34.168 C 62.428 34.629 62.688 35.608 62.766 36.150999999999996 C 62.922999999999995 37.238 62.661 38.513 62.048 39.648999999999994 C 61.259 41.111 58.066 43.782999999999994 55.245000000000005 45.894999999999996 C 55.461 42.38 55.941 38.244 56.731 36.78 z M 41.606 52.319 L 41.373000000000005 52.323 C 38.965 52.323 36.962 51.037 36.909000000000006 49.455 C 36.876000000000005 48.483 37.59100000000001 47.766999999999996 38.02100000000001 47.425 C 38.88000000000001 46.741 40.11300000000001 46.324999999999996 41.49000000000001 46.279999999999994 C 43.33600000000001 46.279999999999994 47.28600000000001 47.76299999999999 50.22500000000001 49.00699999999999 C 47.079 50.593 43.266 52.264 41.606 52.319 z" stroke-linecap="round" />
</g>
<g transform="matrix(2.75 0 0 2.75 539.24 729)"  >
<path style="stroke: none; stroke-width: 1; stroke-dasharray: none; stroke-linecap: butt; stroke-dashoffset: 0; stroke-linejoin: miter; stroke-miterlimit: 4; fill: rgb(176,136,244); fill-rule: nonzero; opacity: 1;" vector-effect="non-scaling-stroke"  transform=" translate(-169.81, -12.52)" d="M 8.14 20 L 7.040000000000001 15.58 L 2.160000000000001 15.58 L 1.060000000000001 20 L 0.06000000000000094 20 L 4.200000000000001 5 L 5.060000000000001 5 L 9.180000000000001 20 L 8.14 20 z M 4.66 5.9399999999999995 L 2.4000000000000004 14.62 L 6.78 14.62 z M 18.2875 18.92 C 17.50084 19.64 16.4341 20.000100000000003 15.087500000000002 20.000100000000003 L 11.667500000000002 20.000100000000003 L 11.667500000000002 5.000100000000003 L 14.587500000000002 5.000100000000003 C 15.387500000000003 5.000100000000003 16.0542 5.1034400000000035 16.587500000000002 5.310100000000003 C 17.120800000000003 5.516760000000002 17.547500000000003 5.796760000000003 17.867500000000003 6.150100000000003 C 18.187500000000004 6.503440000000003 18.410840000000004 6.913440000000003 18.537500000000005 7.380100000000002 C 18.664160000000006 7.8467600000000015 18.727500000000006 8.333420000000002 18.727500000000006 8.840100000000003 C 18.727500000000006 9.386760000000002 18.564160000000005 9.903400000000003 18.237500000000008 10.390100000000004 C 17.91084000000001 10.876800000000005 17.474180000000008 11.333420000000004 16.92750000000001 11.760100000000005 C 17.140840000000008 11.893440000000005 17.307500000000008 11.996780000000005 17.42750000000001 12.070120000000005 C 17.54750000000001 12.143460000000005 17.660840000000007 12.213460000000005 17.76750000000001 12.280120000000005 C 17.94084000000001 12.426780000000006 18.134180000000008 12.603440000000006 18.34752000000001 12.810100000000006 C 18.560860000000012 13.016760000000005 18.75752000000001 13.256760000000005 18.93752000000001 13.530100000000006 C 19.11752000000001 13.803440000000007 19.267520000000008 14.113440000000006 19.38752000000001 14.460100000000006 C 19.50752000000001 14.806760000000006 19.56752000000001 15.193420000000007 19.56752000000001 15.620100000000006 C 19.56752000000001 16.366760000000006 19.45752000000001 17.006800000000005 19.23752000000001 17.540100000000006 C 19.01752000000001 18.073400000000007 18.70086000000001 18.533440000000006 18.28752000000001 18.920100000000005 z M 15.0675 6 L 12.707500000000001 6.000039062 L 12.707500000000001 11.400039062000001 L 15.267500000000002 11.400039062000001 C 15.627500000000001 11.400039062000001 15.957500000000001 11.333379062 16.2575 11.200039062000002 C 16.557499999999997 11.066699062000003 16.8175 10.883359062000002 17.0375 10.650019062000002 C 17.257500000000004 10.416679062000002 17.43084 10.146679062000002 17.5575 9.840019062000001 C 17.684160000000002 9.533359062 17.747500000000002 9.200019062 17.747500000000002 8.840019062000001 C 17.747500000000002 8.586679062000002 17.71084 8.293339062000001 17.637500000000003 7.959999062000001 C 17.564160000000005 7.626659062000002 17.427500000000002 7.316659062000001 17.227500000000003 7.029999062000002 C 17.027500000000003 6.743339062000002 16.754160000000002 6.499999062000001 16.407500000000002 6.299999062000001 C 16.060840000000002 6.099999062000001 15.614180000000003 5.999999062000001 15.067500000000003 5.999999062000001 z M 15.1875 12.4002 L 12.7075 12.400239062 L 12.7075 18.940239062 L 14.8475 18.940239062 C 15.2875 18.940239062 15.727500000000001 18.886899062 16.1675 18.780239062 C 16.6075 18.673579061999998 17.0075 18.493579062 17.3675 18.240239062 C 17.7275 17.986899062000003 18.0175 17.653559062 18.2375 17.240239062 C 18.457500000000003 16.826919062 18.5675 16.313559062 18.5675 15.700239062000001 C 18.5675 15.140239062000001 18.48084 14.650239062 18.307499999999997 14.230239062 C 18.134159999999994 13.810239062 17.894159999999996 13.466899062000001 17.5875 13.200239062000001 C 17.28084 12.933579062000002 16.92084 12.733579062000002 16.5075 12.600239062000002 C 16.094160000000002 12.466899062000001 15.654160000000001 12.400239062000002 15.1875 12.400239062000002 z M 22.175 20 L 22.175 5 L 29.535 5 L 29.535 6.16 L 23.215 6.16 L 23.215 11.86 L 29.475 11.86 L 29.475 12.78 L 23.215000000000003 12.78 L 23.215000000000003 18.84 L 29.675000000000004 18.84 L 29.675000000000004 20 L 22.175000000000004 20 z M 35.7025 20.18 C 35.04916 20.18 34.469 20.093262 33.9624 19.91992 C 33.4558 19.746578000000003 33.02908 19.469920000000002 32.6824 19.089920000000003 C 32.33572 18.709920000000004 32.079080000000005 18.213260000000002 31.91242 17.599920000000004 C 31.745759999999997 16.986580000000007 31.67576 16.246620000000004 31.70242 15.379920000000004 L 32.90242 15.379920000000004 C 32.90242 15.806580000000004 32.92242 16.249920000000003 32.96242 16.709920000000004 C 33.00242 17.169920000000005 33.10908 17.589920000000003 33.28242 17.969920000000005 C 33.455760000000005 18.349920000000008 33.719100000000005 18.659920000000007 34.07244 18.899920000000005 C 34.425779999999996 19.139920000000004 34.91578 19.259920000000005 35.54244 19.259920000000005 C 36.07578 19.259920000000005 36.52912 19.179920000000006 36.90244 19.019920000000006 C 37.27576 18.859920000000006 37.579119999999996 18.646580000000007 37.81246 18.379920000000006 C 38.04580000000001 18.113260000000004 38.209140000000005 17.799920000000007 38.30248 17.439920000000004 C 38.39582 17.07992 38.44248 16.706580000000006 38.44248 16.319920000000003 C 38.44248 15.866580000000003 38.359140000000004 15.469920000000004 38.19248 15.129920000000004 C 38.02582 14.789920000000004 37.805820000000004 14.486580000000004 37.53248000000001 14.219920000000004 C 37.25914000000001 13.953260000000004 36.93914000000001 13.716600000000003 36.572480000000006 13.509940000000004 C 36.20582 13.303280000000004 35.822480000000006 13.119940000000003 35.42248000000001 12.959940000000003 C 34.78248000000001 12.706600000000003 34.222480000000004 12.456600000000003 33.74248000000001 12.209940000000003 C 33.26248000000001 11.963280000000003 32.86914000000001 11.686620000000003 32.56248000000001 11.379960000000002 C 32.25582000000001 11.073300000000001 32.02582000000001 10.716640000000002 31.872480000000007 10.309960000000002 C 31.719140000000003 9.903280000000002 31.642480000000006 9.406640000000001 31.642480000000006 8.819960000000002 C 31.642480000000006 7.486660000000002 31.992480000000008 6.493360000000002 32.69248 5.839960000000001 C 33.39248 5.186560000000001 34.39578 4.859960000000001 35.70248 4.859960000000001 C 36.83578 4.859960000000001 37.73248 5.189960000000001 38.39248 5.849960000000001 C 39.052479999999996 6.509960000000001 39.38248 7.4999600000000015 39.38248 8.819960000000002 L 39.38248 9.919960000000001 L 38.262480000000004 9.919960000000001 L 38.262480000000004 8.719960000000002 C 38.262480000000004 8.306620000000002 38.212480000000006 7.923280000000002 38.112480000000005 7.569960000000002 C 38.012480000000004 7.216640000000002 37.85582000000001 6.906620000000002 37.642480000000006 6.639960000000002 C 37.429140000000004 6.373300000000002 37.15914000000001 6.163300000000002 36.832480000000004 6.009960000000002 C 36.50582 5.856620000000002 36.11582000000001 5.779960000000002 35.66248 5.779960000000002 C 34.595780000000005 5.779960000000002 33.832480000000004 6.059960000000002 33.37248 6.619960000000002 C 32.91248 7.179960000000001 32.70248 7.9332600000000015 32.74248 8.87996 C 32.75582 9.2933 32.832480000000004 9.646640000000001 32.97248 9.939960000000001 C 33.11247999999999 10.23328 33.299139999999994 10.489960000000002 33.53248 10.70996 C 33.765820000000005 10.92996 34.04582 11.12662 34.37248 11.29996 C 34.69914000000001 11.4733 35.06248 11.64664 35.462480000000006 11.819980000000001 C 35.929140000000004 12.01998 36.392480000000006 12.23332 36.85248000000001 12.459980000000002 C 37.31248000000001 12.686640000000002 37.74248000000001 12.966640000000002 38.142480000000006 13.299980000000001 C 38.542480000000005 13.646640000000001 38.87248 14.049980000000001 39.13248000000001 14.509980000000002 C 39.39248000000001 14.969980000000003 39.52248000000001 15.539980000000002 39.52248000000001 16.219980000000003 C 39.52248000000001 17.539980000000003 39.18582000000001 18.529980000000002 38.51248000000001 19.189980000000002 C 37.839140000000015 19.849980000000002 36.90248000000001 20.17998 35.70248000000001 20.17998 z M 47.377500000000005 20 L 47.377500000000005 5 L 48.657500000000006 5 L 48.657500000000006 20 L 47.377500000000005 20 z M 59.025000000000006 20 L 53.22500000000001 7.119999999999999 L 53.22500000000001 20 L 52.12500000000001 20 L 52.12500000000001 5 L 53.30500000000001 5 L 59.105000000000004 17.3 L 59.245000000000005 5 L 60.325 5 L 60.325 20 L 59.025000000000006 20 z M 64.4525 6.140000000000001 L 64.4525 12.2 L 70.4725 12.2 L 70.4725 13.26 L 64.4525 13.26 L 64.4525 20 L 63.292500000000004 20 L 63.292500000000004 5 L 70.5725 5 L 70.5725 6.14 L 64.4525 6.14 z M 76.62 20.18 C 74.10000000000001 20.18 72.84 18.86 72.84 16.22 L 72.84 8.819999999999999 C 72.84 7.486699999999999 73.15666 6.4933999999999985 73.79 5.839999999999998 C 74.42334000000001 5.186599999999998 75.4467 4.859999999999998 76.86 4.859999999999998 C 78.1533 4.859999999999998 79.11 5.189999999999998 79.73 5.849999999999998 C 80.35000000000001 6.509999999999998 80.66000000000001 7.486699999999998 80.66000000000001 8.779999999999998 L 80.66000000000001 16.22 C 80.66000000000001 16.88666 80.59000000000002 17.4667 80.45000000000002 17.959999999999997 C 80.31000000000002 18.453299999999995 80.08000000000001 18.86668 79.76000000000002 19.199999999999996 C 79.44000000000003 19.533319999999993 79.02334000000002 19.779999999999994 78.51000000000002 19.939999999999994 C 77.99666000000002 20.099999999999994 77.36670000000002 20.179999999999993 76.62000000000002 20.179999999999993 z M 79.60000000000001 8.76 C 79.60000000000001 8.42666 79.55336000000001 8.08662 79.46002000000001 7.74 C 79.36668000000002 7.3933800000000005 79.21334000000002 7.0766800000000005 79.00000000000001 6.79002 C 78.78666000000001 6.50336 78.50332000000002 6.270020000000001 78.14998000000001 6.09002 C 77.79664000000001 5.910019999999999 77.35998000000001 5.8200199999999995 76.83998000000001 5.8200199999999995 C 76.26664000000001 5.8200199999999995 75.78998000000001 5.90002 75.40998 6.06002 C 75.02998 6.22002 74.72998 6.44336 74.50998 6.73002 C 74.28998 7.016679999999999 74.13332 7.353339999999999 74.03998 7.7400199999999995 C 73.94664 8.1267 73.89998 8.54668 73.89998 9.00002 L 73.89998 16.10002 C 73.89998 16.44668 73.93998 16.80002 74.01998 17.16002 C 74.09998 17.52002 74.24332 17.85002 74.44998000000001 18.150019999999998 C 74.65664000000002 18.450019999999995 74.93664000000001 18.696679999999997 75.28998000000001 18.890019999999996 C 75.64332000000002 19.083359999999995 76.08666000000001 19.180019999999995 76.61998000000001 19.180019999999995 C 77.19332000000001 19.180019999999995 77.66998000000001 19.103359999999995 78.04998000000002 18.950019999999995 C 78.42998000000003 18.796679999999995 78.73332000000002 18.586679999999994 78.95998000000002 18.320019999999996 C 79.18664000000001 18.053359999999998 79.34998000000002 17.736699999999995 79.44998000000001 17.370039999999996 C 79.54998 17.003379999999996 79.59998000000002 16.606719999999996 79.59998000000002 16.180039999999995 L 79.59998000000002 8.760039999999995 z M 91.26750000000001 20 L 87.96750000000002 13.780000000000001 L 84.90750000000001 13.780000000000001 L 84.90750000000001 20 L 83.92750000000001 20 L 83.92750000000001 5 L 87.32750000000001 5 C 88.11416000000001 5 88.78750000000001 5.11666 89.34750000000001 5.35 C 89.90750000000001 5.583339999999999 90.3675 5.8999999999999995 90.7275 6.3 C 91.0875 6.7 91.35416000000001 7.16334 91.5275 7.6899999999999995 C 91.70084 8.21666 91.78750000000001 8.7667 91.78750000000001 9.34 C 91.78750000000001 10.31334 91.53750000000001 11.19 91.03750000000001 11.969999999999999 C 90.53750000000001 12.749999999999998 89.88080000000001 13.319999999999999 89.06750000000001 13.68 L 92.5875 20 L 91.26750000000001 20 z M 87.18750000000001 5.92 L 84.90750000000001 5.9199804689999995 L 84.90750000000001 12.759980468999998 L 87.32750000000001 12.759980468999998 C 88.00750000000002 12.759980468999998 88.56750000000001 12.656640469 89.00750000000002 12.449980468999998 C 89.44750000000003 12.243320468999997 89.79084000000002 11.976660468999999 90.03750000000002 11.650000468999998 C 90.28416000000003 11.323340468999998 90.45750000000002 10.950000468999999 90.55750000000002 10.530000468999997 C 90.65750000000001 10.110000468999996 90.70750000000002 9.680000468999998 90.70750000000002 9.240000468999998 C 90.70750000000002 8.773340468999999 90.62750000000003 8.340000468999998 90.46750000000003 7.940000468999998 C 90.30750000000003 7.540000468999999 90.07750000000003 7.190000468999998 89.77750000000003 6.8900004689999985 C 89.47750000000003 6.590000468999999 89.11084000000004 6.353340468999998 88.67750000000004 6.1800004689999986 C 88.24416000000004 6.006660468999999 87.74750000000003 5.920000468999999 87.18750000000004 5.920000468999999 z M 104.59500000000001 20 L 104.59500000000001 7.279999999999999 L 100.97500000000001 15.94 L 99.855 15.92 L 96.315 7.26 L 96.315 20 L 95.335 20 L 95.335 5 L 96.375 5 L 100.435 14.76 L 104.515 5 L 105.575 5 L 105.575 20 L 104.595 20 z M 116.3225 20 L 115.22250000000001 15.58 L 110.34250000000002 15.58 L 109.24250000000002 20 L 108.24250000000002 20 L 112.38250000000002 5 L 113.24250000000002 5 L 117.36250000000003 20 L 116.32250000000002 20 z M 112.8425 5.9399999999999995 L 110.5825 14.62 L 114.96249999999999 14.62 z M 122.31 6.1 L 122.31 20 L 121.15 20 L 121.15 6.1 L 117.89 6.1 L 117.89 5 L 125.57 5 L 125.57 6.1 L 122.30999999999999 6.1 z M 128.3975 20 L 128.3975 5 L 129.6775 5 L 129.6775 20 L 128.3975 20 z M 136.925 20.18 C 134.405 20.18 133.145 18.86 133.145 16.22 L 133.145 8.819999999999999 C 133.145 7.486699999999999 133.46166000000002 6.4933999999999985 134.095 5.839999999999998 C 134.72833999999997 5.186599999999998 135.7517 4.859999999999998 137.165 4.859999999999998 C 138.45829999999998 4.859999999999998 139.415 5.189999999999998 140.035 5.849999999999998 C 140.655 6.509999999999998 140.965 7.486699999999998 140.965 8.779999999999998 L 140.965 16.22 C 140.965 16.88666 140.895 17.4667 140.755 17.959999999999997 C 140.61499999999998 18.453299999999995 140.385 18.86668 140.065 19.199999999999996 C 139.745 19.533319999999993 139.32834 19.779999999999994 138.815 19.939999999999994 C 138.30166 20.099999999999994 137.6717 20.179999999999993 136.925 20.179999999999993 z M 139.905 8.76 C 139.905 8.42666 139.85836 8.08662 139.76502 7.74 C 139.67167999999998 7.3933800000000005 139.51834 7.0766800000000005 139.305 6.79002 C 139.09166000000002 6.50336 138.80832 6.270020000000001 138.45498 6.09002 C 138.10164 5.910019999999999 137.66498 5.8200199999999995 137.14498 5.8200199999999995 C 136.57164 5.8200199999999995 136.09498 5.90002 135.71498 6.06002 C 135.33498 6.22002 135.03498 6.44336 134.81498 6.73002 C 134.59498 7.016679999999999 134.43832 7.353339999999999 134.34498 7.7400199999999995 C 134.25163999999998 8.1267 134.20498 8.54668 134.20498 9.00002 L 134.20498 16.10002 C 134.20498 16.44668 134.24498 16.80002 134.32498 17.16002 C 134.40498000000002 17.52002 134.54832000000002 17.85002 134.75498000000002 18.150019999999998 C 134.96164000000002 18.450019999999995 135.24164000000002 18.696679999999997 135.59498000000002 18.890019999999996 C 135.94832000000002 19.083359999999995 136.39166000000003 19.180019999999995 136.92498000000003 19.180019999999995 C 137.49832000000004 19.180019999999995 137.97498000000004 19.103359999999995 138.35498000000004 18.950019999999995 C 138.73498000000004 18.796679999999995 139.03832000000003 18.586679999999994 139.26498000000004 18.320019999999996 C 139.49164000000005 18.053359999999998 139.65498000000002 17.736699999999995 139.75498000000005 17.370039999999996 C 139.85498000000007 17.003379999999996 139.90498000000005 16.606719999999996 139.90498000000005 16.180039999999995 L 139.90498000000005 8.760039999999995 z M 150.95250000000004 20 L 145.15250000000003 7.119999999999999 L 145.15250000000003 20 L 144.05250000000004 20 L 144.05250000000004 5 L 145.23250000000004 5 L 151.03250000000006 17.3 L 151.17250000000004 5 L 152.25250000000005 5 L 152.25250000000005 20 L 150.95250000000004 20 z M 169.68750000000003 20 L 169.68750000000003 7.279999999999999 L 166.06750000000002 15.94 L 164.94750000000002 15.92 L 161.40750000000003 7.26 L 161.40750000000003 20 L 160.42750000000004 20 L 160.42750000000004 5 L 161.46750000000003 5 L 165.52750000000003 14.76 L 169.60750000000004 5 L 170.66750000000005 5 L 170.66750000000005 20 L 169.68750000000006 20 z M 181.41500000000002 20 L 180.31500000000003 15.58 L 175.43500000000003 15.58 L 174.33500000000004 20 L 173.33500000000004 20 L 177.47500000000002 5 L 178.33500000000004 5 L 182.45500000000004 20 L 181.41500000000005 20 z M 177.93500000000003 5.9399999999999995 L 175.67500000000004 14.62 L 180.05500000000004 14.62 z M 192.06250000000003 20 L 186.26250000000002 7.119999999999999 L 186.26250000000002 20 L 185.16250000000002 20 L 185.16250000000002 5 L 186.34250000000003 5 L 192.14250000000004 17.3 L 192.28250000000003 5 L 193.36250000000004 5 L 193.36250000000004 20 L 192.06250000000003 20 z M 204.27000000000004 20 L 203.17000000000004 15.58 L 198.29000000000005 15.58 L 197.19000000000005 20 L 196.19000000000005 20 L 200.33000000000004 5 L 201.19000000000005 5 L 205.31000000000006 20 L 204.27000000000007 20 z M 200.79000000000002 5.9399999999999995 L 198.53000000000003 14.62 L 202.91000000000003 14.62 z M 211.15750000000003 20.18 C 209.89080000000004 20.18 208.94410000000002 19.84666 208.31750000000002 19.18 C 207.69090000000003 18.51334 207.37750000000003 17.526699999999998 207.37750000000003 16.22 L 207.37750000000003 8.819999999999999 C 207.37750000000003 7.486699999999999 207.69084000000004 6.4933999999999985 208.31750000000002 5.839999999999998 C 208.94416 5.186599999999998 209.9575 4.859999999999998 211.35750000000002 4.859999999999998 C 212.6775 4.859999999999998 213.6441 5.189999999999998 214.25750000000002 5.849999999999998 C 214.87090000000003 6.509999999999998 215.1775 7.486699999999998 215.1775 8.779999999999998 L 215.1775 9.859999999999998 L 214.0975 9.859999999999998 L 214.0975 8.579999999999998 C 214.0975 8.246659999999999 214.0575 7.909999999999998 213.9775 7.5699999999999985 C 213.89749999999998 7.229999999999999 213.75415999999998 6.919999999999998 213.54749999999999 6.639999999999999 C 213.34084 6.359999999999999 213.05749999999998 6.133339999999999 212.6975 5.959999999999999 C 212.3375 5.7866599999999995 211.8775 5.699999999999999 211.3175 5.699999999999999 C 210.7575 5.699999999999999 210.2942 5.77666 209.9275 5.93 C 209.56080000000003 6.08334 209.2675 6.3 209.0475 6.58 C 208.82750000000001 6.86 208.67084000000003 7.19 208.57750000000001 7.57 C 208.48416 7.95 208.43750000000003 8.36666 208.43750000000003 8.82 L 208.43750000000003 16.3 C 208.43750000000003 16.76666 208.48416000000003 17.183320000000002 208.57750000000001 17.55 C 208.67084 17.91668 208.82750000000001 18.226660000000003 209.0475 18.48 C 209.2675 18.73334 209.55416000000002 18.92668 209.90750000000003 19.06002 C 210.26084000000003 19.193360000000002 210.69084000000004 19.26002 211.19750000000002 19.26002 C 211.75750000000002 19.26002 212.22420000000002 19.19002 212.59750000000003 19.05002 C 212.97080000000003 18.91002 213.27084000000002 18.71336 213.49750000000003 18.46002 C 213.72416000000004 18.20668 213.88750000000002 17.90002 213.98750000000004 17.54002 C 214.08750000000006 17.180019999999995 214.13750000000005 16.786679999999997 214.13750000000005 16.36002 L 214.13750000000005 13.42002 L 210.99750000000006 13.40002 L 210.99750000000006 12.42002 L 215.17750000000007 12.440019999999999 L 215.17750000000007 16.220019999999998 C 215.17750000000007 17.54002 214.87084000000007 18.530019999999997 214.25750000000008 19.190019999999997 C 213.64416000000008 19.850019999999997 212.61080000000007 20.180019999999995 211.15750000000008 20.180019999999995 z M 218.10500000000005 20 L 218.10500000000005 5 L 225.46500000000006 5 L 225.46500000000006 6.16 L 219.14500000000007 6.16 L 219.14500000000007 11.86 L 225.40500000000006 11.86 L 225.40500000000006 12.78 L 219.14500000000007 12.78 L 219.14500000000007 18.84 L 225.60500000000008 18.84 L 225.60500000000008 20 L 218.10500000000008 20 z M 237.79250000000005 20 L 237.79250000000005 7.279999999999999 L 234.17250000000004 15.94 L 233.05250000000004 15.92 L 229.51250000000005 7.26 L 229.51250000000005 20 L 228.53250000000006 20 L 228.53250000000006 5 L 229.57250000000005 5 L 233.63250000000005 14.76 L 237.71250000000006 5 L 238.77250000000006 5 L 238.77250000000006 20 L 237.79250000000008 20 z M 242.28000000000006 20 L 242.28000000000006 5 L 249.64000000000007 5 L 249.64000000000007 6.16 L 243.32000000000008 6.16 L 243.32000000000008 11.86 L 249.58000000000007 11.86 L 249.58000000000007 12.78 L 243.32000000000008 12.78 L 243.32000000000008 18.84 L 249.7800000000001 18.84 L 249.7800000000001 20 L 242.2800000000001 20 z M 259.4075000000001 20 L 253.60750000000007 7.119999999999999 L 253.60750000000007 20 L 252.50750000000008 20 L 252.50750000000008 5 L 253.68750000000009 5 L 259.48750000000007 17.3 L 259.62750000000005 5 L 260.70750000000004 5 L 260.70750000000004 20 L 259.4075 20 z M 267.9150000000001 6.1 L 267.9150000000001 20 L 266.75500000000005 20 L 266.75500000000005 6.1 L 263.49500000000006 6.1 L 263.49500000000006 5 L 271.17500000000007 5 L 271.17500000000007 6.1 L 267.9150000000001 6.1 z M 282.8900000000001 20.18 C 282.2366600000001 20.18 281.6565000000001 20.093262 281.1499000000001 19.91992 C 280.6433000000001 19.746578000000003 280.21658000000014 19.469920000000002 279.86990000000014 19.089920000000003 C 279.52322000000015 18.709920000000004 279.26658000000015 18.213260000000002 279.09992000000017 17.599920000000004 C 278.9332600000002 16.986580000000007 278.8632600000002 16.246620000000004 278.8899200000002 15.379920000000004 L 280.0899200000002 15.379920000000004 C 280.0899200000002 15.806580000000004 280.10992000000016 16.249920000000003 280.1499200000002 16.709920000000004 C 280.1899200000002 17.169920000000005 280.2965800000002 17.589920000000003 280.4699200000002 17.969920000000005 C 280.64326000000017 18.349920000000008 280.9066000000002 18.659920000000007 281.2599400000002 18.899920000000005 C 281.6132800000002 19.139920000000004 282.1032800000002 19.259920000000005 282.7299400000002 19.259920000000005 C 283.26328000000024 19.259920000000005 283.7166200000002 19.179920000000006 284.08994000000024 19.019920000000006 C 284.4632600000003 18.859920000000006 284.7666200000002 18.646580000000007 284.9999600000002 18.379920000000006 C 285.2333000000002 18.113260000000004 285.3966400000002 17.799920000000007 285.48998000000023 17.439920000000004 C 285.58332000000024 17.07992 285.6299800000002 16.706580000000006 285.6299800000002 16.319920000000003 C 285.6299800000002 15.866580000000003 285.5466400000002 15.469920000000004 285.3799800000002 15.129920000000004 C 285.21332000000024 14.789920000000004 284.9933200000002 14.486580000000004 284.7199800000002 14.219920000000004 C 284.4466400000002 13.953260000000004 284.1266400000002 13.716600000000003 283.7599800000002 13.509940000000004 C 283.39332000000024 13.303280000000004 283.0099800000002 13.119940000000003 282.60998000000023 12.959940000000003 C 281.96998000000025 12.706600000000003 281.40998000000025 12.456600000000003 280.9299800000002 12.209940000000003 C 280.4499800000002 11.963280000000003 280.05664000000024 11.686620000000003 279.7499800000002 11.379960000000002 C 279.4433200000002 11.073300000000001 279.21332000000024 10.716640000000002 279.0599800000002 10.309960000000002 C 278.9066400000002 9.903280000000002 278.8299800000002 9.406640000000001 278.8299800000002 8.819960000000002 C 278.8299800000002 7.486660000000002 279.1799800000002 6.493360000000002 279.8799800000002 5.839960000000001 C 280.5799800000002 5.186560000000001 281.58328000000023 4.859960000000001 282.8899800000002 4.859960000000001 C 284.0232800000002 4.859960000000001 284.9199800000002 5.189960000000001 285.5799800000002 5.849960000000001 C 286.23998000000023 6.509960000000001 286.5699800000002 7.4999600000000015 286.5699800000002 8.819960000000002 L 286.5699800000002 9.919960000000001 L 285.4499800000002 9.919960000000001 L 285.4499800000002 8.719960000000002 C 285.4499800000002 8.306620000000002 285.3999800000002 7.923280000000002 285.29998000000023 7.569960000000002 C 285.19998000000027 7.216640000000002 285.0433200000002 6.906620000000002 284.8299800000002 6.639960000000002 C 284.6166400000002 6.373300000000002 284.3466400000002 6.163300000000002 284.0199800000002 6.009960000000002 C 283.6933200000002 5.856620000000002 283.3033200000002 5.779960000000002 282.8499800000002 5.779960000000002 C 281.78328000000016 5.779960000000002 281.0199800000002 6.059960000000002 280.55998000000017 6.619960000000002 C 280.09998000000013 7.179960000000001 279.88998000000015 7.9332600000000015 279.92998000000017 8.87996 C 279.9433200000002 9.2933 280.01998000000015 9.646640000000001 280.1599800000002 9.939960000000001 C 280.29998000000023 10.23328 280.4866400000002 10.489960000000002 280.7199800000002 10.70996 C 280.9533200000002 10.92996 281.2333200000002 11.12662 281.55998000000017 11.29996 C 281.8866400000001 11.4733 282.24998000000016 11.64664 282.64998000000014 11.819980000000001 C 283.11664000000013 12.01998 283.57998000000015 12.23332 284.0399800000001 12.459980000000002 C 284.4999800000001 12.686640000000002 284.9299800000001 12.966640000000002 285.32998000000015 13.299980000000001 C 285.7299800000001 13.646640000000001 286.05998000000017 14.049980000000001 286.31998000000016 14.509980000000002 C 286.57998000000015 14.969980000000003 286.70998000000014 15.539980000000002 286.70998000000014 16.219980000000003 C 286.70998000000014 17.539980000000003 286.37332000000015 18.529980000000002 285.69998000000015 19.189980000000002 C 285.02664000000016 19.849980000000002 284.08998000000014 20.17998 282.88998000000015 20.17998 z M 293.3775000000001 13.14 L 293.3775000000001 20 L 292.2975000000001 20 L 292.2975000000001 13.14 L 288.6775000000001 5 L 289.91750000000013 5 L 292.8175000000001 11.940000000000001 L 295.7575000000001 5.000000000000001 L 296.9975000000001 5.000000000000001 z M 302.96500000000015 20.18 C 302.31166000000013 20.18 301.73150000000015 20.093262 301.22490000000016 19.91992 C 300.71830000000017 19.746578000000003 300.2915800000002 19.469920000000002 299.9449000000002 19.089920000000003 C 299.5982200000002 18.709920000000004 299.3415800000002 18.213260000000002 299.1749200000002 17.599920000000004 C 299.00826000000023 16.986580000000007 298.93826000000024 16.246620000000004 298.96492000000023 15.379920000000004 L 300.1649200000002 15.379920000000004 C 300.1649200000002 15.806580000000004 300.1849200000002 16.249920000000003 300.2249200000002 16.709920000000004 C 300.26492000000025 17.169920000000005 300.3715800000002 17.589920000000003 300.5449200000002 17.969920000000005 C 300.7182600000002 18.349920000000008 300.98160000000024 18.659920000000007 301.33494000000024 18.899920000000005 C 301.68828000000025 19.139920000000004 302.17828000000026 19.259920000000005 302.8049400000003 19.259920000000005 C 303.3382800000003 19.259920000000005 303.79162000000025 19.179920000000006 304.1649400000003 19.019920000000006 C 304.5382600000003 18.859920000000006 304.84162000000026 18.646580000000007 305.07496000000026 18.379920000000006 C 305.30830000000026 18.113260000000004 305.47164000000026 17.799920000000007 305.5649800000003 17.439920000000004 C 305.6583200000003 17.07992 305.70498000000026 16.706580000000006 305.70498000000026 16.319920000000003 C 305.70498000000026 15.866580000000003 305.62164000000024 15.469920000000004 305.45498000000026 15.129920000000004 C 305.2883200000003 14.789920000000004 305.06832000000026 14.486580000000004 304.79498000000024 14.219920000000004 C 304.5216400000002 13.953260000000004 304.2016400000002 13.716600000000003 303.83498000000026 13.509940000000004 C 303.4683200000003 13.303280000000004 303.08498000000026 13.119940000000003 302.6849800000003 12.959940000000003 C 302.0449800000003 12.706600000000003 301.4849800000003 12.456600000000003 301.0049800000003 12.209940000000003 C 300.52498000000026 11.963280000000003 300.1316400000003 11.686620000000003 299.82498000000027 11.379960000000002 C 299.51832000000024 11.073300000000001 299.2883200000003 10.716640000000002 299.13498000000027 10.309960000000002 C 298.98164000000025 9.903280000000002 298.90498000000025 9.406640000000001 298.90498000000025 8.819960000000002 C 298.90498000000025 7.486660000000002 299.2549800000003 6.493360000000002 299.95498000000026 5.839960000000001 C 300.65498000000025 5.186560000000001 301.6582800000003 4.859960000000001 302.96498000000025 4.859960000000001 C 304.0982800000003 4.859960000000001 304.9949800000002 5.189960000000001 305.65498000000025 5.849960000000001 C 306.3149800000003 6.509960000000001 306.64498000000026 7.4999600000000015 306.64498000000026 8.819960000000002 L 306.64498000000026 9.919960000000001 L 305.52498000000026 9.919960000000001 L 305.52498000000026 8.719960000000002 C 305.52498000000026 8.306620000000002 305.47498000000024 7.923280000000002 305.3749800000003 7.569960000000002 C 305.2749800000003 7.216640000000002 305.11832000000027 6.906620000000002 304.90498000000025 6.639960000000002 C 304.69164000000023 6.373300000000002 304.42164000000025 6.163300000000002 304.09498000000025 6.009960000000002 C 303.76832000000024 5.856620000000002 303.37832000000026 5.779960000000002 302.92498000000023 5.779960000000002 C 301.8582800000002 5.779960000000002 301.09498000000025 6.059960000000002 300.6349800000002 6.619960000000002 C 300.1749800000002 7.179960000000001 299.9649800000002 7.9332600000000015 300.0049800000002 8.87996 C 300.01832000000024 9.2933 300.0949800000002 9.646640000000001 300.23498000000023 9.939960000000001 C 300.3749800000003 10.23328 300.56164000000024 10.489960000000002 300.79498000000024 10.70996 C 301.02832000000024 10.92996 301.30832000000026 11.12662 301.6349800000002 11.29996 C 301.96164000000016 11.4733 302.3249800000002 11.64664 302.7249800000002 11.819980000000001 C 303.1916400000002 12.01998 303.6549800000002 12.23332 304.1149800000002 12.459980000000002 C 304.57498000000015 12.686640000000002 305.00498000000016 12.966640000000002 305.4049800000002 13.299980000000001 C 305.80498000000017 13.646640000000001 306.1349800000002 14.049980000000001 306.3949800000002 14.509980000000002 C 306.6549800000002 14.969980000000003 306.7849800000002 15.539980000000002 306.7849800000002 16.219980000000003 C 306.7849800000002 17.539980000000003 306.4483200000002 18.529980000000002 305.7749800000002 19.189980000000002 C 305.1016400000002 19.849980000000002 304.1649800000002 20.17998 302.9649800000002 20.17998 z M 313.01250000000016 6.1 L 313.01250000000016 20 L 311.85250000000013 20 L 311.85250000000013 6.1 L 308.59250000000014 6.1 L 308.59250000000014 5 L 316.27250000000015 5 L 316.27250000000015 6.1 L 313.01250000000016 6.1 z M 318.90000000000015 20 L 318.90000000000015 5 L 326.26000000000016 5 L 326.26000000000016 6.16 L 319.94000000000017 6.16 L 319.94000000000017 11.86 L 326.20000000000016 11.86 L 326.20000000000016 12.78 L 319.94000000000017 12.78 L 319.94000000000017 18.84 L 326.40000000000015 18.84 L 326.40000000000015 20 L 318.90000000000015 20 z M 338.58750000000015 20 L 338.58750000000015 7.279999999999999 L 334.96750000000014 15.94 L 333.84750000000014 15.92 L 330.3075000000001 7.26 L 330.3075000000001 20 L 329.3275000000001 20 L 329.3275000000001 5 L 330.3675000000001 5 L 334.4275000000001 14.76 L 338.5075000000001 5 L 339.5675000000001 5 L 339.5675000000001 20 L 338.5875000000001 20 z" stroke-linecap="round" />
</g>
<g transform="matrix(1.12 -1.16 1.16 1.12 352.58 395.79)"  >
<path style="stroke: none; stroke-width: 1; stroke-dasharray: none; stroke-linecap: butt; stroke-dashoffset: 0; stroke-linejoin: miter; stroke-miterlimit: 4; fill: rgb(176,136,244); fill-rule: nonzero; opacity: 1;" vector-effect="non-scaling-stroke"  transform=" translate(-42.9, -51.76)" d="M 41.631 57.403 C 41.606 57.403999999999996 41.582 57.403999999999996 41.556 57.403999999999996 C 41.208999999999996 57.403999999999996 40.873 57.272999999999996 40.619 57.035 L 17.898 35.675 L 13.434999999999999 48.595 C 13.518999999999998 48.829 14.302999999999999 50.376 20.907999999999998 53.765 C 25.868 56.31 32.527 59.069 39.658 61.533 C 50.766000000000005 65.37 61.173 67.848 66.17 67.849 L 66.17 67.849 C 67.68 67.849 68.164 67.611 68.274 67.542 L 72.359 55.721000000000004 L 41.631 57.403 z" stroke-linecap="round" />
</g>
<g transform="matrix(1.12 -1.16 1.16 1.12 335.43 371.91)"  >
<path style="stroke: none; stroke-width: 1; stroke-dasharray: none; stroke-linecap: butt; stroke-dashoffset: 0; stroke-linejoin: miter; stroke-miterlimit: 4; fill: rgb(176,136,244); fill-rule: nonzero; opacity: 1;" vector-effect="non-scaling-stroke"  transform=" translate(-48.81, -35.99)" d="M 77.038 49.548 C 74.601 42.678000000000004 55.699999999999996 38.414 48.623 37.351 C 47.875 37.239 47.361 36.542 47.474 35.795 C 47.586 35.048 48.278 34.532000000000004 49.031 34.646 C 49.302 34.687 55.775 35.672000000000004 62.76 37.807 C 72.447 40.767 78.11699999999999 44.410000000000004 79.615 48.635000000000005 C 80.15599999999999 50.157000000000004 80.506 51.43600000000001 80.729 52.526 L 94.186 51.790000000000006 L 54.899 17.336 L 3.428 18.318 L 42.067 54.641000000000005 L 77.971 52.676 C 77.769 51.801 77.474 50.773 77.038 49.548 z" stroke-linecap="round" />
</g>
<g transform="matrix(1.12 -1.16 1.16 1.12 422.9 371.04)"  >
<path style="stroke: none; stroke-width: 1; stroke-dasharray: none; stroke-linecap: butt; stroke-dashoffset: 0; stroke-linejoin: miter; stroke-miterlimit: 4; fill: rgb(176,136,244); fill-rule: nonzero; opacity: 1;" vector-effect="non-scaling-stroke"  transform=" translate(-84.3, -72.52)" d="M 96.455 64.848 C 95.649 62.068 91.119 61.926 90.22 61.926 L 90.072 61.935 C 87.893 62.173 86.117 61.706 84.636 60.508 C 81.348 57.846000000000004 80.75999999999999 52.577000000000005 80.75399999999999 52.524 L 77.97899999999998 52.676 C 78.00299999999999 52.941 78.72399999999999 59.230000000000004 82.90099999999998 62.624 C 84.93299999999998 64.273 87.41899999999998 64.962 90.28899999999999 64.662 C 92.03099999999999 64.68100000000001 93.71 65.2 93.829 65.61 C 93.83099999999999 65.623 94.02 66.91 89.25 70.272 C 88.287 69.94500000000001 87.076 70.20100000000001 86.149 71.036 C 85.514 71.608 85.132 72.34100000000001 85.028 73.06400000000001 C 83.34100000000001 73.96600000000001 75.78500000000001 78.62800000000001 72.057 91.331 C 71.95100000000001 91.69200000000001 72.159 92.074 72.521 92.18 C 72.584 92.19900000000001 72.65 92.20800000000001 72.713 92.20800000000001 C 73.008 92.20800000000001 73.27999999999999 92.01400000000001 73.368 91.71700000000001 C 76.40299999999999 81.37600000000002 82.17399999999999 76.55900000000001 84.695 74.87500000000001 C 82.068 77.18900000000002 73.65299999999999 85.37100000000001 77.89599999999999 91.83800000000002 C 78.02899999999998 92.03800000000003 78.24599999999998 92.14700000000002 78.46899999999998 92.14700000000002 C 78.59699999999998 92.14700000000002 78.72899999999998 92.11100000000002 78.84399999999998 92.03500000000003 C 79.16099999999997 91.82800000000003 79.24699999999999 91.40500000000003 79.03999999999998 91.08800000000002 C 75.45499999999998 85.62700000000002 83.13499999999998 78.10700000000003 85.57299999999998 75.93000000000002 C 83.41799999999998 78.28400000000002 79.30199999999998 83.40700000000002 79.71399999999998 87.79700000000003 C 79.89099999999999 89.69900000000003 80.88599999999998 91.24800000000002 82.66199999999998 92.39800000000002 C 82.77399999999997 92.47300000000003 82.90499999999997 92.50700000000002 83.03299999999997 92.50700000000002 C 83.25599999999997 92.50700000000002 83.47599999999997 92.39700000000002 83.60599999999997 92.19500000000002 C 83.81199999999997 91.87900000000002 83.72099999999996 91.45500000000003 83.40299999999996 91.24900000000002 C 81.97699999999996 90.32600000000002 81.21499999999996 89.15600000000002 81.07499999999996 87.67100000000002 C 80.63799999999996 83.02200000000002 86.42899999999996 76.97000000000003 87.57699999999996 75.81700000000002 C 88.28799999999995 75.77100000000002 89.02999999999996 75.47600000000003 89.64499999999995 74.92100000000002 C 90.38399999999996 74.25500000000002 90.76899999999995 73.37200000000001 90.78599999999996 72.53800000000003 C 95.301 69.37 97.065 66.953 96.455 64.848 z" stroke-linecap="round" />
</g>
<g transform="matrix(0 0 0 0 0 0)"  >
<g style=""   >
</g>
</g>
<g transform="matrix(0 0 0 0 0 0)"  >
<g style=""   >
</g>
</g>
<g transform="matrix(2.26 0 0 2.26 508.2 574.91)" style="" id="99617c40-ccf4-46c1-86c1-e924684e4e00"  >
		<text xml:space="preserve" font-family="Raleway" font-size="138" font-style="normal" font-weight="900" style="stroke: none; stroke-width: 1; stroke-dasharray: none; stroke-linecap: butt; stroke-dashoffset: 0; stroke-linejoin: miter; stroke-miterlimit: 4; fill: rgb(176,136,244); fill-rule: nonzero; opacity: 1; white-space: pre;" ><tspan x="-185.47" y="43.35" >A</tspan><tspan x="-89.98" y="43.35" style="white-space: pre; "> </tspan><tspan x="-55.48" y="43.35" style="white-space: pre; "> </tspan><tspan x="-20.98" y="43.35" >M</tspan><tspan x="100.33" y="43.35" >S</tspan></text>
</g>
</svg>